/* XPM */
static char * giada_xpm[] = {
"32 32 80 1",
" 	c None",
".	c #313131",
"+	c #515151",
"@	c #4F4F4F",
"#	c #505050",
"$	c #535353",
"%	c #464646",
"&	c #525252",
"*	c #4C4C4C",
"=	c #5B5B5B",
"-	c #595959",
";	c #575757",
">	c #545454",
",	c #232323",
"'	c #5A5A5A",
")	c #484848",
"!	c #585858",
"~	c #363636",
"{	c #343434",
"]	c #555555",
"^	c #393939",
"/	c #252525",
"(	c #444444",
"_	c #2D2D2D",
":	c #4B4B4B",
"<	c #565656",
"[	c #353535",
"}	c #212121",
"|	c #262626",
"1	c #4D4D4D",
"2	c #323232",
"3	c #4E4E4E",
"4	c #454545",
"5	c #333333",
"6	c #494949",
"7	c #4A4A4A",
"8	c #2B2B2B",
"9	c #404040",
"0	c #424242",
"a	c #3B3B3B",
"b	c #303030",
"c	c #3C3C3C",
"d	c #373737",
"e	c #3E3E3E",
"f	c #3A3A3A",
"g	c #383838",
"h	c #2F2F2F",
"i	c #272727",
"j	c #2C2C2C",
"k	c #2E2E2E",
"l	c #1D1D1D",
"m	c #282828",
"n	c #0F0F0F",
"o	c #292929",
"p	c #161616",
"q	c #1F1F1F",
"r	c #1C1C1C",
"s	c #181818",
"t	c #2A2A2A",
"u	c #242424",
"v	c #171717",
"w	c #141414",
"x	c #202020",
"y	c #131313",
"z	c #1A1A1A",
"A	c #0B0B0B",
"B	c #191919",
"C	c #0E0E0E",
"D	c #151515",
"E	c #101010",
"F	c #111111",
"G	c #060606",
"H	c #070707",
"I	c #0C0C0C",
"J	c #050505",
"K	c #080808",
"L	c #030303",
"M	c #020202",
"N	c #040404",
"O	c #000000",
"                                ",
"              .+@+#$%   &&*     ",
"             $=-+$;++> ,'-#     ",
"           )!-;~     {']--+     ",
"          ^'-]        /;--$     ",
"         ('-;          &-=_     ",
"         #]]:          <<!      ",
"        [+#&}         |$&$      ",
"        @11%          2334      ",
"       56)6           )7:8      ",
"       9(40           %%%}      ",
"       ^99a          b000       ",
"       ~ccd          ^eef       ",
"       5gg[          ^^^{       ",
"       h{{2         i[[~2       ",
"       jbbj        /.b..k       ",
"       l_jm        8no_kp       ",
"        qimp     ris mot        ",
"         }u/s  nq,v  ///        ",
"          wxx}}}y   nx}z        ",
"             A      slln        ",
"                    Bss         ",
"                   CwDy         ",
"                   EEFA         ",
"     GAAG         HIIA          ",
"     GGGH        JKKK           ",
"     LLLLM      MNNM            ",
"      OOOOOOOOOOOO              ",
"         OOOOOOO                ",
"                                ",
"                                ",
"                                "};
